<svg width="90" height="100" viewBox="0 0 90 100" fill="none" xmlns="http://www.w3.org/2000/svg">
<path fill-rule="evenodd" clip-rule="evenodd" d="M7.08861 2.22222H72.9114C75.7078 2.22222 77.9747 4.70953 77.9747 7.77778V32.2222H80V7.77778C80 3.48223 76.8263 0 72.9114 0H7.08861C3.17368 0 0 3.48223 0 7.77778V92.2222C0 96.5178 3.17368 100 7.08861 100H72.9114C76.8263 100 80 96.5178 80 92.2222V46.6667H77.9747V92.2222C77.9747 95.2905 75.7078 97.7778 72.9114 97.7778H7.08861C4.29223 97.7778 2.02532 95.2905 2.02532 92.2222V7.77778C2.02532 4.70953 4.29223 2.22222 7.08861 2.22222ZM64.8101 61.1111H14.1772V58.8889H64.8101V61.1111ZM14.1772 74.4445H64.8101V72.2222H14.1772V74.4445ZM64.8101 87.7778H14.1772V85.5556H64.8101V87.7778ZM44.557 36.6667H64.8101V34.4444H44.557V36.6667ZM64.8101 25.5556H44.557V23.3333H64.8101V25.5556ZM20.9921 12.2222C19.3143 12.2222 17.9542 13.7146 17.9542 15.5556V21.5873C17.9542 22.201 17.5008 22.6984 16.9415 22.6984H11.1392C9.46141 22.6984 8.10127 24.1908 8.10127 26.0317V33.9683C8.10127 35.8092 9.46141 37.3016 11.1392 37.3016H16.9415C17.5008 37.3016 17.9542 37.799 17.9542 38.4127V44.4444C17.9542 46.2854 19.3143 47.7778 20.9921 47.7778H28.4365C30.1144 47.7778 31.4745 46.2854 31.4745 44.4444V38.4127C31.4745 37.799 31.9279 37.3016 32.4872 37.3016H37.4684C39.1462 37.3016 40.5063 35.8092 40.5063 33.9683V26.0317C40.5063 24.1908 39.1462 22.6984 37.4684 22.6984H32.4872C31.9279 22.6984 31.4745 22.201 31.4745 21.5873V15.5556C31.4745 13.7146 30.1144 12.2222 28.4365 12.2222H20.9921ZM19.9795 15.5556C19.9795 14.9419 20.4329 14.4444 20.9921 14.4444H28.4365C28.9958 14.4444 29.4492 14.9419 29.4492 15.5556V21.5873C29.4492 23.4283 30.8093 24.9206 32.4872 24.9206H37.4684C38.0276 24.9206 38.481 25.4181 38.481 26.0317V33.9683C38.481 34.5819 38.0276 35.0794 37.4684 35.0794H32.4872C30.8093 35.0794 29.4492 36.5718 29.4492 38.4127V44.4444C29.4492 45.0581 28.9958 45.5556 28.4365 45.5556H20.9921C20.4329 45.5556 19.9795 45.0581 19.9795 44.4444V38.4127C19.9795 36.5718 18.6193 35.0794 16.9415 35.0794H11.1392C10.58 35.0794 10.1266 34.5819 10.1266 33.9683V26.0317C10.1266 25.4181 10.58 24.9206 11.1392 24.9206H16.9415C18.6193 24.9206 19.9795 23.4282 19.9795 21.5873V15.5556Z" fill="#339D71"/>
</svg>
