<svg width="91" height="100" viewBox="0 0 91 100" fill="none" xmlns="http://www.w3.org/2000/svg">
<path fill-rule="evenodd" clip-rule="evenodd" d="M52.3784 3.47727C51.322 4.64258 50.7069 6.2579 50.4806 7.38925L50.3668 7.9583L50.0354 8.06876C50.0211 8.09851 50.0044 8.13541 49.9858 8.18046C49.8752 8.4479 49.7523 8.85966 49.6245 9.41441C49.3712 10.5143 49.1324 12.0251 48.917 13.7193C48.728 15.2062 48.5595 16.8137 48.416 18.3738C48.8643 18.5405 49.2839 18.7567 49.6724 19.0093C50.1001 19.2873 50.4866 19.6066 50.832 19.9469L51.2929 19.486L51.4598 19.3191L51.6063 19.2703C51.6528 19.2299 51.7252 19.1574 51.824 19.0416C52.0223 18.8091 52.271 18.4688 52.5628 18.0275C53.1438 17.149 53.8411 15.9546 54.574 14.6234C56.0122 12.0111 57.55 8.94014 58.5471 6.86731C59.1398 3.98389 57.5077 2.53862 56.6743 2.14309C54.737 1.68753 53.3741 2.37893 52.3784 3.47727ZM46.0426 23.0007C46.1025 22.1002 46.1777 21.0801 46.2666 20.0013C45.6475 20.0125 44.9617 20.1635 44.2037 20.5081L44.1741 20.5215L44.1438 20.533L25.6532 27.5294C24.9671 27.8064 23.2416 28.8304 22.1829 30.5536L2.2318 77.9376C2.04287 78.5748 1.90452 79.5812 2.08231 80.5251C2.25801 81.4578 2.71772 82.2509 3.69461 82.6833L34.1488 96.163C34.9925 96.4341 36.2989 96.5618 37.4859 96.1125C38.622 95.6824 39.784 94.6758 40.3155 92.3728L40.3336 92.2942L40.3642 92.2195L59.3509 45.7519C59.7791 44.432 60.1166 41.0334 57.9899 38.1977L57.9316 38.12L57.8893 38.0324L50.8893 23.5324L50.8774 23.5077L50.8668 23.4823C50.6624 22.9918 50.321 22.397 49.8573 21.8393L49.1859 21.5931L49.4177 21.3613C49.1651 21.1137 48.8861 20.8836 48.5823 20.6861C48.4701 20.6132 48.3541 20.5443 48.2342 20.4803C48.1479 21.5474 48.0757 22.5499 48.0191 23.425C49.7748 24.2008 51 25.9576 51 28.0005C51 30.7619 48.7614 33.0005 46 33.0005C43.2386 33.0005 41 30.7619 41 28.0005C41 25.2391 43.2386 23.0005 46 23.0005L46.0426 23.0007ZM46.933 13.467C46.7484 14.9191 46.5835 16.4803 46.4419 18.0013C45.5082 17.9857 44.4921 18.1849 43.4065 18.6736L24.936 25.6624L24.9272 25.6657L24.9185 25.6692C23.94 26.0606 21.7731 27.3486 20.4324 29.5832L20.3958 29.6441L20.3682 29.7096L0.368232 77.2096L0.348976 77.2554L0.334342 77.3028C0.0671275 78.1686 -0.139052 79.5367 0.11688 80.8953C0.379145 82.2876 1.15092 83.7445 2.88512 84.5121L33.3851 98.0121L33.4286 98.0314L33.4736 98.0464C34.6318 98.4324 36.4511 98.6426 38.1939 97.9829C39.9909 97.3027 41.5662 95.7489 42.2454 92.903L45.9003 83.9581L50.1105 91.9576C50.8619 93.453 52.0823 94.1949 53.267 94.4949C54.4195 94.7868 55.551 94.6688 56.2747 94.462L56.348 94.4411L56.4172 94.4094L86.9172 80.4094L86.9756 80.3826L87.03 80.3485C88.9336 79.1588 89.7282 77.4039 89.9417 75.7539C90.1509 74.1379 89.8129 72.5902 89.4285 71.6291L89.4178 71.6023L89.4055 71.5761L74.4055 39.5761L72.5946 40.425L87.5816 72.3974C87.86 73.1062 88.114 74.2943 87.9583 75.4972C87.8072 76.6646 87.2808 77.8111 86.0218 78.6197L55.6579 92.5573C55.2071 92.6729 54.4768 92.7382 53.758 92.5561C53.037 92.3735 52.3434 91.9513 51.8944 91.0533L51.8898 91.044L51.8849 91.0348L46.888 81.5407L61.2156 46.4759L61.2281 46.4453L61.2386 46.4139C61.8016 44.7247 62.2404 40.6031 59.6493 37.0777L52.8166 22.9243L65.4307 27.5495C65.7689 27.9362 66.455 28.8391 67.1056 30.1404L70.6056 37.1404L72.3944 36.2459L68.8944 29.2459C68.0529 27.5629 67.1262 26.4051 66.7071 25.986L66.5512 25.8302L66.3443 25.7543L52.8759 20.8159L52.901 20.7947L52.9146 20.783C53.0638 20.6538 53.2086 20.5002 53.3456 20.3396C53.6199 20.018 53.9197 19.6014 54.231 19.1307C54.8563 18.1852 55.5839 16.9359 56.326 15.5879C57.8129 12.8872 59.3966 9.71942 60.4015 7.62586L60.4513 7.52225L60.4762 7.41006C61.4011 3.24789 58.9091 0.923338 57.3939 0.273984L57.3203 0.242421L57.2425 0.222988C54.4241 -0.481636 52.3117 0.572995 50.8966 2.13399C49.644 3.51575 48.9223 5.29542 48.5991 6.63649C48.5446 6.6965 48.5001 6.75426 48.4646 6.80385C48.3297 6.99233 48.2237 7.2081 48.1377 7.41596C47.9645 7.83472 47.8124 8.3714 47.6755 8.9656C47.3996 10.1637 47.1509 11.7528 46.933 13.467ZM51.5752 19.2951L51.576 19.2945L51.5804 19.2915L51.5762 19.2945C51.5756 19.2949 51.5752 19.2951 51.5752 19.2951ZM60.0872 61.4089L68.5872 80.4089L70.4128 79.5922L61.9128 60.5922L60.0872 61.4089ZM75.5872 76.4089L67.0872 57.4089L68.9128 56.5922L77.4128 75.5922L75.5872 76.4089ZM49 28.0005C49 29.6574 47.6569 31.0005 46 31.0005C44.3432 31.0005 43 29.6574 43 28.0005C43 26.3437 44.3432 25.0005 46 25.0005C47.6569 25.0005 49 26.3437 49 28.0005ZM31 78.0005C38.1797 78.0005 44 72.1802 44 65.0005C44 57.8208 38.1797 52.0005 31 52.0005C23.8203 52.0005 18 57.8208 18 65.0005C18 72.1802 23.8203 78.0005 31 78.0005ZM31 80.0005C39.2843 80.0005 46 73.2848 46 65.0005C46 56.7163 39.2843 50.0005 31 50.0005C22.7157 50.0005 16 56.7163 16 65.0005C16 73.2848 22.7157 80.0005 31 80.0005ZM30.66 74.2554C30.8067 74.4021 30.9867 74.4754 31.2 74.4754C31.4267 74.4754 31.6067 74.4021 31.74 74.2554C31.8867 74.1088 31.96 73.9288 31.96 73.7154V72.0824C32.7006 71.9941 33.3606 71.8051 33.94 71.5154C34.62 71.1821 35.1467 70.7288 35.52 70.1554C35.9067 69.5821 36.1 68.9154 36.1 68.1554C36.1 67.1821 35.7934 66.4088 35.18 65.8354C34.5667 65.2488 33.62 64.8221 32.34 64.5554L30.26 64.0954C29.46 63.9221 28.88 63.6688 28.52 63.3354C28.1733 62.9888 28 62.5221 28 61.9354C28 61.1888 28.28 60.5888 28.84 60.1354C29.4133 59.6688 30.18 59.4354 31.14 59.4354C31.8733 59.4354 32.5 59.5288 33.02 59.7154C33.5533 59.9021 34.04 60.1554 34.48 60.4754C34.68 60.6088 34.86 60.6754 35.02 60.6754C35.1933 60.6621 35.3333 60.6088 35.44 60.5154C35.56 60.4221 35.64 60.3021 35.68 60.1554C35.7333 60.0088 35.7333 59.8554 35.68 59.6954C35.64 59.5354 35.5467 59.3954 35.4 59.2754C34.9067 58.8354 34.3134 58.4954 33.62 58.2554C33.0436 58.0448 32.4903 57.9172 31.96 57.8724V56.2554C31.96 56.0421 31.8867 55.8621 31.74 55.7154C31.5933 55.5688 31.4133 55.4954 31.2 55.4954C30.9867 55.4954 30.8067 55.5688 30.66 55.7154C30.5133 55.8621 30.44 56.0421 30.44 56.2554V57.8731C29.6478 57.9389 28.9411 58.1329 28.32 58.4554C27.64 58.8154 27.1067 59.3021 26.72 59.9154C26.3467 60.5288 26.16 61.2221 26.16 61.9954C26.16 62.9954 26.4533 63.8021 27.04 64.4154C27.64 65.0154 28.54 65.4488 29.74 65.7154L31.78 66.1554C32.38 66.2754 32.86 66.4288 33.22 66.6154C33.58 66.8021 33.84 67.0288 34 67.2954C34.1733 67.5621 34.26 67.8821 34.26 68.2554C34.26 68.6954 34.14 69.0888 33.9 69.4354C33.6733 69.7821 33.32 70.0554 32.84 70.2554C32.36 70.4421 31.7533 70.5354 31.02 70.5354C30.1 70.5354 29.3267 70.4288 28.7 70.2154C28.0867 69.9888 27.5667 69.7288 27.14 69.4354C26.9267 69.3021 26.74 69.2488 26.58 69.2754C26.42 69.3021 26.28 69.3754 26.16 69.4954C26.0533 69.6154 25.9867 69.7621 25.96 69.9354C25.9333 70.0954 25.9533 70.2621 26.02 70.4354C26.0867 70.5954 26.2067 70.7354 26.38 70.8554C26.8867 71.2154 27.52 71.5154 28.28 71.7554C28.9355 71.9624 29.6555 72.0851 30.44 72.1235V73.7154C30.44 73.9288 30.5133 74.1088 30.66 74.2554Z" fill="#339D71"/>
</svg>
